<svg xmlns="http://www.w3.org/2000/svg" version="1.1" viewBox="77.75 55.27 279.27 278.95">

<path d="M0 0 C9.18981425 8.58465244 17.3365985 17.48993448 23.99804688 28.17382812 C24.38541016 28.79193359 24.77277344 29.41003906 25.171875 30.046875 C43.63649774 60.01006017 50.57156396 97.55814835 42.99804688 132.17382812 C41.85218942 136.91039097 40.49618315 141.53749061 38.99804688 146.17382812 C38.66160156 147.26953125 38.32515625 148.36523438 37.97851562 149.49414062 C28.12974161 179.49287986 7.41456606 205.09009117 -19.00195312 222.17382812 C-19.61441895 222.57150391 -20.22688477 222.96917969 -20.85791016 223.37890625 C-35.89631056 232.9298443 -53.3913889 239.46278707 -71.00195312 242.17382812 C-72.13632813 242.356875 -73.27070313 242.53992188 -74.43945312 242.72851562 C-80.29567642 243.43218115 -86.19067387 243.35983579 -92.08105469 243.35913086 C-94.10178227 243.36130109 -96.12194781 243.37946329 -98.14257812 243.3984375 C-110.0670374 243.41593915 -121.68437857 242.38982376 -133.06445312 238.67382812 C-134.24019897 238.29460205 -134.24019897 238.29460205 -135.43969727 237.90771484 C-149.80893543 233.0598855 -163.88040142 226.33314156 -176.00195312 217.17382812 C-176.87207031 216.52414062 -177.7421875 215.87445313 -178.63867188 215.20507812 C-191.71165245 204.97570938 -203.01132423 193.12082935 -212.00195312 179.17382812 C-212.62328125 178.23667969 -213.24460937 177.29953125 -213.88476562 176.33398438 C-227.65104733 154.32645331 -233.22356283 129.22748582 -233.25195312 103.61132812 C-233.25329254 102.89795288 -233.25463196 102.18457764 -233.25601196 101.44958496 C-233.25176273 91.02461689 -232.67348637 81.29555266 -230.00195312 71.17382812 C-229.82019531 70.22636719 -229.6384375 69.27890625 -229.45117188 68.30273438 C-222.99757393 36.64937302 -200.21225112 6.17528149 -173.60742188 -11.54882812 C-119.46606434 -46.25252623 -48.35402399 -44.10830481 0 0 Z " fill="#E8921A" transform="translate(311.001953125,90.826171875)" data-index="1" style="visibility: visible; opacity: 1;"/>
<path d="M0 0 C5.28 0 10.56 0 16 0 C16 6.93 16 13.86 16 21 C19.63 21 23.26 21 27 21 C27 14.07 27 7.14 27 0 C32.28 0 37.56 0 43 0 C43 7.26 43 14.52 43 22 C46.3 22.33 49.6 22.66 53 23 C55.80771084 23.90104187 58.28682583 24.78693979 60.9375 26 C61.62207275 26.31050293 62.30664551 26.62100586 63.01196289 26.94091797 C77.16590143 33.66349931 86.63337849 44.85678987 92 59.5 C94.88059355 68.22179714 95.18293581 75.97836043 95.1875 85.125 C95.19974609 86.3934375 95.21199219 87.661875 95.22460938 88.96875 C95.25308259 107.38142612 90.64663264 122.83856162 78 136.5625 C68.49735914 145.72805394 56.22539485 152 43 152 C43 159.92 43 167.84 43 176 C37.39 176 31.78 176 26 176 C26 168.41 26 160.82 26 153 C22.7 153 19.4 153 16 153 C16 160.59 16 168.18 16 176 C10.72 176 5.44 176 0 176 C0 168.41 0 160.82 0 153 C-10.89 153 -21.78 153 -33 153 C-33 146.73 -33 140.46 -33 134 C-27.06 133.67 -21.12 133.34 -15 133 C-13.74824039 129.24472116 -13.82826722 125.72593707 -13.80712891 121.8125 C-13.79895142 120.97807373 -13.79077393 120.14364746 -13.78234863 119.28393555 C-13.7575334 116.522631 -13.74099276 113.76137754 -13.7265625 111 C-13.72123882 110.05769531 -13.71591515 109.11539063 -13.71043015 108.14453125 C-13.68372146 103.16146661 -13.66433516 98.17842688 -13.64990234 93.1953125 C-13.63321688 88.03991005 -13.58840033 82.88514221 -13.5375309 77.72998047 C-13.50395005 73.77180205 -13.49233532 69.81377642 -13.48667526 65.85546875 C-13.47994247 63.95437746 -13.46466809 62.05329693 -13.44078445 60.15234375 C-13.40931172 57.49686062 -13.40906807 54.84311914 -13.41650391 52.1875 C-13.40009857 51.39883545 -13.38369324 50.6101709 -13.36679077 49.79760742 C-13.33824783 47.35640701 -13.33824783 47.35640701 -14 44 C-17.83247089 40.72191169 -21.36625762 40.54363282 -26.3125 40.3125 C-28.519375 40.209375 -30.72625 40.10625 -33 40 C-33 33.73 -33 27.46 -33 21 C-22.11 21 -11.22 21 0 21 C0 14.07 0 7.14 0 0 Z " fill="#FAF7F3" transform="translate(186,105)" data-index="2" style="visibility: visible; opacity: 1;"/>
<path d="M0 0 C9.18981425 8.58465244 17.3365985 17.48993448 23.99804688 28.17382812 C24.38541016 28.79193359 24.77277344 29.41003906 25.171875 30.046875 C43.63649774 60.01006017 50.57156396 97.55814835 42.99804688 132.17382812 C41.85218942 136.91039097 40.49618315 141.53749061 38.99804688 146.17382812 C38.66160156 147.26953125 38.32515625 148.36523438 37.97851562 149.49414062 C28.12974161 179.49287986 7.41456606 205.09009117 -19.00195312 222.17382812 C-19.61441895 222.57150391 -20.22688477 222.96917969 -20.85791016 223.37890625 C-35.89631056 232.9298443 -53.3913889 239.46278707 -71.00195312 242.17382812 C-72.13632813 242.356875 -73.27070313 242.53992188 -74.43945312 242.72851562 C-80.29567642 243.43218115 -86.19067387 243.35983579 -92.08105469 243.35913086 C-94.10178227 243.36130109 -96.12194781 243.37946329 -98.14257812 243.3984375 C-110.0670374 243.41593915 -121.68437857 242.38982376 -133.06445312 238.67382812 C-134.24019897 238.29460205 -134.24019897 238.29460205 -135.43969727 237.90771484 C-149.80893543 233.0598855 -163.88040142 226.33314156 -176.00195312 217.17382812 C-176.87207031 216.52414062 -177.7421875 215.87445313 -178.63867188 215.20507812 C-191.71165245 204.97570938 -203.01132423 193.12082935 -212.00195312 179.17382812 C-212.62328125 178.23667969 -213.24460937 177.29953125 -213.88476562 176.33398438 C-227.65104733 154.32645331 -233.22356283 129.22748582 -233.25195312 103.61132812 C-233.25329254 102.89795288 -233.25463196 102.18457764 -233.25601196 101.44958496 C-233.25176273 91.02461689 -232.67348637 81.29555266 -230.00195312 71.17382812 C-229.82019531 70.22636719 -229.6384375 69.27890625 -229.45117188 68.30273438 C-222.99757393 36.64937302 -200.21225112 6.17528149 -173.60742188 -11.54882812 C-119.46606434 -46.25252623 -48.35402399 -44.10830481 0 0 Z M-177.00195312 6.17382812 C-177.85273438 6.90472656 -178.70351562 7.635625 -179.58007812 8.38867188 C-203.31587251 29.10288508 -218.64659013 58.70312181 -221.68945312 90.17382812 C-223.19574873 113.89798386 -219.68091806 136.48127355 -210.00195312 158.17382812 C-209.32519531 159.71296875 -209.32519531 159.71296875 -208.63476562 161.28320312 C-194.79437885 190.84063929 -167.71917422 212.95710008 -137.64648438 224.56835938 C-126.07775518 228.7485302 -113.33437868 231.91917627 -101.00195312 232.17382812 C-99.85984375 232.2125 -98.71773438 232.25117188 -97.54101562 232.29101562 C-62.89670713 232.9338997 -30.74017212 219.98200227 -5.43164062 196.53320312 C8.25204788 183.2455056 17.54976211 168.62017858 24.99804688 151.17382812 C25.40796875 150.2328125 25.81789063 149.29179687 26.24023438 148.32226562 C31.09230639 136.17327912 33.6090488 122.21372013 33.99804688 109.17382812 C34.03800781 107.92214844 34.07796875 106.67046875 34.11914062 105.38085938 C34.87042883 70.2613191 21.17156215 39.54718914 -2.10742188 13.84960938 C-22.49908827 -7.43349599 -53.21864439 -22.86288721 -82.94799805 -23.93212891 C-86.36253054 -23.99659715 -89.77433492 -24.01177774 -93.18945312 -24.01367188 C-94.33220703 -24.02591797 -95.47496094 -24.03816406 -96.65234375 -24.05078125 C-125.92444773 -24.10042303 -155.14898999 -13.33774611 -177.00195312 6.17382812 Z " fill="#1F2220" transform="translate(311.001953125,90.826171875)" data-index="3" style="visibility: visible; opacity: 1;"/>
<path d="M0 0 C34.84986162 0 34.84986162 0 45.0234375 9.7421875 C55.16528741 21.32714649 54.77457365 37.44908076 54 52 C53.30903323 59.2551511 51.46805083 65.58714812 48 72 C47.66355469 72.62777344 47.32710937 73.25554687 46.98046875 73.90234375 C42.77369136 80.69562031 35.63909869 84.3327699 28.25 86.875 C18.9749279 88.54451298 9.42413052 88 0 88 C0 58.96 0 29.92 0 0 Z " fill="#E9921B" transform="translate(199,149)" data-index="4" style="visibility: visible; opacity: 1;"/>
</svg>